<?xml version="1.0" encoding="UTF-8" standalone="no"?>
<!-- Created with Inkscape (http://www.inkscape.org/) -->

<svg
   width="210mm"
   height="297mm"
   viewBox="0 0 210 297"
   version="1.1"
   id="svg5"
   inkscape:version="1.2.2 (732a01da63, 2022-12-09)"
   sodipodi:docname="logo3.svg"
   inkscape:export-filename="logo3.png"
   inkscape:export-xdpi="123.43723"
   inkscape:export-ydpi="123.43723"
   xmlns:inkscape="http://www.inkscape.org/namespaces/inkscape"
   xmlns:sodipodi="http://sodipodi.sourceforge.net/DTD/sodipodi-0.dtd"
   xmlns:xlink="http://www.w3.org/1999/xlink"
   xmlns="http://www.w3.org/2000/svg"
   xmlns:svg="http://www.w3.org/2000/svg">
  <sodipodi:namedview
     id="namedview7"
     pagecolor="#ffffff"
     bordercolor="#000000"
     borderopacity="0.25"
     inkscape:showpageshadow="2"
     inkscape:pageopacity="0.0"
     inkscape:pagecheckerboard="0"
     inkscape:deskcolor="#d1d1d1"
     inkscape:document-units="mm"
     showgrid="false"
     inkscape:zoom="1.4770342"
     inkscape:cx="283.67657"
     inkscape:cy="481.37002"
     inkscape:window-width="1920"
     inkscape:window-height="1009"
     inkscape:window-x="-8"
     inkscape:window-y="-8"
     inkscape:window-maximized="1"
     inkscape:current-layer="layer1" />
  <defs
     id="defs2">
    <linearGradient
       inkscape:collect="always"
       id="linearGradient6144">
      <stop
         style="stop-color:#750010;stop-opacity:1;"
         offset="0"
         id="stop6140" />
      <stop
         style="stop-color:#ff0c28;stop-opacity:1;"
         offset="1"
         id="stop6142" />
    </linearGradient>
    <rect
       x="282.9319"
       y="454.79748"
       width="224.0476"
       height="80.906078"
       id="rect2149" />
    <linearGradient
       inkscape:collect="always"
       xlink:href="#linearGradient6144"
       id="linearGradient6146"
       x1="60.246508"
       y1="121.27479"
       x2="153.68362"
       y2="121.27479"
       gradientUnits="userSpaceOnUse" />
  </defs>
  <g
     inkscape:label="Capa 1"
     inkscape:groupmode="layer"
     id="layer1">
    <path
       id="path798"
       style="fill:none;fill-opacity:1;stroke:url(#linearGradient6146);stroke-width:0.876001;stroke-opacity:1"
       inkscape:transform-center-x="-1.1335295e-06"
       inkscape:transform-center-y="2.2036133e-06"
       d="m 106.96532,70.269638 c -5.24274,0 -18.818947,7.92476 -23.359297,10.54613 -4.540347,2.62137 -18.191307,10.41636 -20.812687,14.95671 -2.62137,4.540352 -2.54661,20.259572 -2.54661,25.502322 0,5.24274 -0.07476,20.96197 2.54661,25.50232 2.62138,4.54035 16.27234,12.33533 20.812687,14.95671 4.540348,2.62137 18.116557,10.54612 23.359297,10.54612 5.24275,0 18.81843,-7.92475 23.35878,-10.54612 4.54035,-2.62137 18.19131,-10.41636 20.81268,-14.95671 2.62137,-4.54035 2.54662,-20.25958 2.54662,-25.50232 0,-5.24274 0.0747,-20.96197 -2.54662,-25.502322 -2.62137,-4.54035 -16.27233,-12.33534 -20.81268,-14.95671 -4.54035,-2.62137 -18.11604,-10.54613 -23.35878,-10.54613 z M 68.569216,113.57346 h 6.52622 c 0.89174,0 1.65832,0.0506 2.30011,0.15193 0.64179,0.10133 1.24331,0.32109 1.80403,0.65887 0.567474,0.33779 1.016691,0.77678 1.347719,1.31724 0.337783,0.53369 0.506429,1.20573 0.506429,2.01641 0,1.11469 -0.260127,2.02334 -0.780314,2.72593 -0.513431,0.70259 -1.249864,1.28673 -2.209164,1.75287 l 5.036381,6.46523 h -4.752681 l -4.11396,-5.53247 h -1.79369 v 5.53247 h -3.87108 z m 16.23415,0 h 10.913546 v 2.91817 h -7.042981 v 2.60449 h 6.536551 v 2.91869 h -6.536551 v 3.72897 h 7.042981 v 2.91816 H 84.803366 Z m 14.176395,0 h 5.857529 c 1.21602,0 2.10423,0.0404 2.66495,0.12144 0.56748,0.0811 1.1281,0.25994 1.68207,0.53692 0.57423,0.29049 0.99994,0.68247 1.27692,1.17564 0.28374,0.48641 0.42582,1.04397 0.42582,1.67225 0,0.72961 -0.19267,1.37456 -0.57775,1.93528 -0.38507,0.55396 -0.92883,0.98632 -1.63142,1.29708 v 0.0811 c 0.98633,0.19591 1.76671,0.60118 2.34094,1.21595 0.58099,0.61476 0.87127,1.42529 0.87127,2.43189 0,0.72961 -0.14872,1.38172 -0.44597,1.95595 -0.2905,0.57423 -0.69218,1.05054 -1.20561,1.42885 -0.5945,0.44588 -1.25019,0.76324 -1.96629,0.9524 -0.70935,0.18916 -1.61084,0.2837 -2.70526,0.2837 h -6.587199 z m 15.595949,0 h 3.91139 v 9.4139 c 0,1.04712 0.21924,1.82751 0.65836,2.34094 0.43911,0.51343 1.15204,0.76998 2.13837,0.76998 0.97281,0 1.68216,-0.24633 2.12803,-0.73949 0.45263,-0.49317 0.67903,-1.28377 0.67903,-2.37143 v -9.4139 h 3.91139 v 9.6268 c 0,1.86457 -0.56727,3.29348 -1.70222,4.28656 -1.13495,0.99309 -2.80713,1.48932 -5.01623,1.48932 -2.20911,0 -3.88128,-0.49623 -5.01623,-1.48932 -1.1282,-0.99308 -1.69189,-2.41893 -1.69189,-4.27674 z m 17.06459,0 h 4.65139 l 5.50251,8.64392 v -8.64392 h 3.56671 v 15.08848 h -3.74913 l -6.40426,-10.35647 v 10.35647 h -3.56722 z m -28.78946,2.76624 v 3.19205 h 0.60824 c 0.61476,0 1.13808,-0.0102 1.57044,-0.0305 0.43236,-0.0203 0.77375,-0.0877 1.02371,-0.20257 0.3513,-0.15538 0.58076,-0.35469 0.68885,-0.59789 0.10809,-0.24996 0.16226,-0.53718 0.16226,-0.86145 0,-0.24996 -0.0644,-0.49987 -0.19275,-0.74982 -0.1216,-0.24996 -0.34084,-0.43547 -0.65836,-0.55708 -0.28374,-0.10809 -0.63841,-0.16584 -1.06402,-0.1726 -0.41885,-0.0135 -1.01014,-0.0202 -1.77353,-0.0202 z M 72.440296,116.35 v 4.06331 h 1.19579 c 0.62152,0 1.14178,-0.0301 1.56063,-0.0909 0.41885,-0.0608 0.76995,-0.19929 1.05368,-0.41548 0.27023,-0.20942 0.46648,-0.4394 0.58808,-0.68936 0.12836,-0.25672 0.19224,-0.59759 0.19224,-1.02319 0,-0.37832 -0.07768,-0.70284 -0.23306,-0.97307 -0.15538,-0.27023 -0.42215,-0.48282 -0.80047,-0.6382 -0.26347,-0.10809 -0.57113,-0.17249 -0.92243,-0.19276 -0.35129,-0.027 -0.75962,-0.0403 -1.22576,-0.0403 z m 30.410544,5.78621 v 3.75945 h 0.28371 c 1.09442,0 1.87838,-0.004 2.35127,-0.0103 0.4729,-0.007 0.90832,-0.0941 1.3069,-0.26303 0.40534,-0.1689 0.68233,-0.39223 0.83096,-0.66921 0.15538,-0.28374 0.23306,-0.60775 0.23306,-0.97255 0,-0.47966 -0.0945,-0.84813 -0.2837,-1.10484 -0.18241,-0.26348 -0.49619,-0.45921 -0.94207,-0.58757 -0.304,-0.0878 -0.72307,-0.13535 -1.25677,-0.14211 -0.53369,-0.007 -1.09126,-0.01 -1.67225,-0.01 z" />
  </g>
</svg>
